<svg xmlns="http://www.w3.org/2000/svg" width="31.839" height="31.073" viewBox="0 0 31.839 31.073"><defs><style>.a,.c{fill:none;stroke:#595959;}.a{stroke-linecap:round;}.b{fill:#d4f9f5;}.c{stroke-miterlimit:10;}</style></defs><g transform="translate(0.004)"><path class="a" d="M.5,167.609s-.42-5.847,9.687-8.469" transform="translate(0 -137.099)"/><path class="b" d="M12.988,76.19h2.063v7.93H12.988A3.73,3.73,0,0,1,9.55,80.155h0a3.731,3.731,0,0,1,3.438-3.965Z" transform="translate(-7.82 -65.412)"/><path class="b" d="M186.26,76.174h.923c2.989-.081,4.618,1.775,4.618,3.965h0c0,2.19-1.494,4.237-4.618,3.965h-.923v-7.93Z" transform="translate(-160.535 -65.396)"/><g transform="translate(27.267 24.704)"><path class="a" d="M-326.394-119.928a8.511,8.511,0,0,0-3.636-5.8" transform="translate(330.03 125.73)"/></g><path class="b" d="M110.855,167.265h-3.023a1.272,1.272,0,0,1-1.272-1.272h0a1.272,1.272,0,0,1,1.272-1.272h3.023a1.272,1.272,0,0,1,1.272,1.272h0A1.271,1.271,0,0,1,110.855,167.265Z" transform="translate(-91.657 -141.921)"/><path class="c" d="M110.855,167.265h-3.023a1.272,1.272,0,0,1-1.272-1.272h0a1.272,1.272,0,0,1,1.272-1.272h3.023a1.272,1.272,0,0,1,1.272,1.272h0A1.271,1.271,0,0,1,110.855,167.265Z" transform="translate(-91.657 -141.921)"/><path class="c" d="M14.569,10.764H13.076a4.006,4.006,0,0,0,0,8.011h1.629s-.136-9.626-.136-9.811C14.569,4.29,18.734.5,23.871.5s9.3,3.79,9.3,8.465c0,.2-.068,9.811-.068,9.811h1.629a4.006,4.006,0,1,0,0-8.011H33.24" transform="translate(-7.405)"/><path class="c" d="M147.57,140.386a6.072,6.072,0,0,0,5.228-5.3" transform="translate(-127.098 -116.315)"/></g></svg>