<svg xmlns="http://www.w3.org/2000/svg" width="24" height="17.142" viewBox="0 0 24 17.142"><defs><style>.a{fill:#595959;}.b{fill:#00baa4;}</style></defs><g transform="translate(-379.9 -913.705)"><g transform="translate(379.9 913.705)"><path class="a" d="M402.4,930.847h-21a1.56,1.56,0,0,1-1.5-1.608V915.312a1.558,1.558,0,0,1,1.5-1.607h21a1.558,1.558,0,0,1,1.5,1.607v13.927A1.56,1.56,0,0,1,402.4,930.847Zm-21.5-9.642v8.034a.518.518,0,0,0,.5.536h21a.52.52,0,0,0,.5-.536v-8.034Zm0-3.215v2.143h22V917.99Zm.5-3.215a.518.518,0,0,0-.5.536v1.608h22v-1.608a.519.519,0,0,0-.5-.536Z" transform="translate(-379.9 -913.705)"/></g><path class="b" d="M394.3,923.652h5.091a.621.621,0,0,0,0-1.222H394.3a.62.62,0,0,0,0,1.22" transform="translate(1.984 1.246)"/></g></svg>