<svg xmlns="http://www.w3.org/2000/svg" width="24.486" height="16.598" viewBox="0 0 24.486 16.598"><defs><style>.a{fill:rgba(0,186,164,0);}.a,.b,.c,.d{stroke:#595959;stroke-linecap:round;stroke-linejoin:round;}.a,.b,.c{fill-rule:evenodd;}.b{fill:#00baa4;}.c,.d{fill:none;}.d{stroke-miterlimit:10;}</style></defs><g transform="translate(-16.513 -0.997)"><path class="a" d="M13.905,7.591V21.626H35.638a1.907,1.907,0,0,0,1.733-2.043V7.591Z" transform="translate(3.107 -4.531)"/><path class="b" d="M66.755.715c0,.119,0,.136,0,.346,0,.409,0,.865,0,1.357,0,1.4-.007,2.812-.009,4.13,0,2.913,0,5.154,0,5.858,1.59-.324,2.787-.058,3.561.806V1.533A3.137,3.137,0,0,0,66.755.715Z" transform="translate(-29.807 1)"/><path class="c" d="M23.975,12.409H22.349V13.84H20.693v6.324h1.641l.015,1.633h1.626" transform="translate(-0.821 -6.727)"/><g transform="translate(27.578 5.985)"><path class="d" d="M5,29.28a1.591,1.591,0,1,0,1.591-1.591v0A1.591,1.591,0,1,1,8.182,26.1" transform="translate(-5 -23.393)"/><line class="d" y1="1.117" transform="translate(1.591 7.478)"/><line class="d" y1="1.117" transform="translate(1.591 0)"/></g></g></svg>