<svg width="200" height="30" viewBox="0 0 200 30" fill="none" xmlns="http://www.w3.org/2000/svg">
<rect width="200" height="30" rx="5" fill="#828282"/>
<path d="M52.3584 16.7588L52.4951 17.6963L52.6953 16.8516L54.1016 11.8906H54.8926L56.2646 16.8516L56.46 17.7109L56.6113 16.7539L57.7148 11.8906H58.6572L56.9336 19H56.0791L54.6143 13.8193L54.502 13.2773L54.3896 13.8193L52.8711 19H52.0166L50.2979 11.8906H51.2354L52.3584 16.7588ZM65.166 19H64.2236V15.7139H60.6396V19H59.7021V11.8906H60.6396V14.9473H64.2236V11.8906H65.166V19ZM70.8447 17.1445H67.8662L67.1973 19H66.2305L68.9453 11.8906H69.7656L72.4854 19H71.5234L70.8447 17.1445ZM68.1494 16.373H70.5664L69.3555 13.0479L68.1494 16.373ZM77.7197 12.6621H75.4346V19H74.502V12.6621H72.2217V11.8906H77.7197V12.6621ZM80.791 15.8311C79.987 15.5999 79.401 15.3167 79.0332 14.9814C78.6686 14.6429 78.4863 14.2262 78.4863 13.7314C78.4863 13.1715 78.7093 12.7093 79.1553 12.3447C79.6045 11.9769 80.1872 11.793 80.9033 11.793C81.3916 11.793 81.8262 11.8874 82.207 12.0762C82.5911 12.265 82.8874 12.5254 83.0957 12.8574C83.3073 13.1895 83.4131 13.5524 83.4131 13.9463H82.4707C82.4707 13.5166 82.334 13.1797 82.0605 12.9355C81.7871 12.6882 81.4014 12.5645 80.9033 12.5645C80.4411 12.5645 80.0798 12.667 79.8193 12.8721C79.5622 13.0739 79.4336 13.3555 79.4336 13.7168C79.4336 14.0065 79.5557 14.2523 79.7998 14.4541C80.0472 14.6527 80.4655 14.835 81.0547 15.001C81.6471 15.167 82.1094 15.3509 82.4414 15.5527C82.7767 15.7513 83.0241 15.984 83.1836 16.251C83.3464 16.5179 83.4277 16.832 83.4277 17.1934C83.4277 17.7695 83.2031 18.2318 82.7539 18.5801C82.3047 18.9251 81.7041 19.0977 80.9521 19.0977C80.4639 19.0977 80.0081 19.0049 79.585 18.8193C79.1618 18.6305 78.8346 18.3734 78.6035 18.0479C78.3757 17.7223 78.2617 17.3529 78.2617 16.9395H79.2041C79.2041 17.3691 79.362 17.7093 79.6777 17.96C79.9967 18.2074 80.4215 18.3311 80.9521 18.3311C81.4469 18.3311 81.8262 18.2301 82.0898 18.0283C82.3535 17.8265 82.4854 17.5514 82.4854 17.2031C82.4854 16.8548 82.3633 16.5863 82.1191 16.3975C81.875 16.2054 81.4323 16.0166 80.791 15.8311ZM88.5596 17.1445H85.5811L84.9121 19H83.9453L86.6602 11.8906H87.4805L90.2002 19H89.2383L88.5596 17.1445ZM85.8643 16.373H88.2812L87.0703 13.0479L85.8643 16.373ZM92.0947 16.2168V19H91.1572V11.8906H93.7793C94.5573 11.8906 95.166 12.0892 95.6055 12.4863C96.0482 12.8835 96.2695 13.4092 96.2695 14.0635C96.2695 14.7536 96.0531 15.2858 95.6201 15.6602C95.1904 16.0312 94.5736 16.2168 93.7695 16.2168H92.0947ZM92.0947 15.4502H93.7793C94.2806 15.4502 94.6647 15.333 94.9316 15.0986C95.1986 14.861 95.332 14.5192 95.332 14.0732C95.332 13.6501 95.1986 13.3115 94.9316 13.0576C94.6647 12.8037 94.2985 12.6719 93.833 12.6621H92.0947V15.4502ZM98.4033 16.2168V19H97.4658V11.8906H100.088C100.866 11.8906 101.475 12.0892 101.914 12.4863C102.357 12.8835 102.578 13.4092 102.578 14.0635C102.578 14.7536 102.362 15.2858 101.929 15.6602C101.499 16.0312 100.882 16.2168 100.078 16.2168H98.4033ZM98.4033 15.4502H100.088C100.589 15.4502 100.973 15.333 101.24 15.0986C101.507 14.861 101.641 14.5192 101.641 14.0732C101.641 13.6501 101.507 13.3115 101.24 13.0576C100.973 12.8037 100.607 12.6719 100.142 12.6621H98.4033V15.4502ZM108.35 15.8311C107.546 15.5999 106.96 15.3167 106.592 14.9814C106.227 14.6429 106.045 14.2262 106.045 13.7314C106.045 13.1715 106.268 12.7093 106.714 12.3447C107.163 11.9769 107.746 11.793 108.462 11.793C108.95 11.793 109.385 11.8874 109.766 12.0762C110.15 12.265 110.446 12.5254 110.654 12.8574C110.866 13.1895 110.972 13.5524 110.972 13.9463H110.029C110.029 13.5166 109.893 13.1797 109.619 12.9355C109.346 12.6882 108.96 12.5645 108.462 12.5645C108 12.5645 107.638 12.667 107.378 12.8721C107.121 13.0739 106.992 13.3555 106.992 13.7168C106.992 14.0065 107.114 14.2523 107.358 14.4541C107.606 14.6527 108.024 14.835 108.613 15.001C109.206 15.167 109.668 15.3509 110 15.5527C110.335 15.7513 110.583 15.984 110.742 16.251C110.905 16.5179 110.986 16.832 110.986 17.1934C110.986 17.7695 110.762 18.2318 110.312 18.5801C109.863 18.9251 109.263 19.0977 108.511 19.0977C108.022 19.0977 107.567 19.0049 107.144 18.8193C106.72 18.6305 106.393 18.3734 106.162 18.0479C105.934 17.7223 105.82 17.3529 105.82 16.9395H106.763C106.763 17.3691 106.921 17.7093 107.236 17.96C107.555 18.2074 107.98 18.3311 108.511 18.3311C109.006 18.3311 109.385 18.2301 109.648 18.0283C109.912 17.8265 110.044 17.5514 110.044 17.2031C110.044 16.8548 109.922 16.5863 109.678 16.3975C109.434 16.2054 108.991 16.0166 108.35 15.8311ZM117.661 15.6748C117.661 16.3714 117.544 16.9801 117.31 17.501C117.075 18.0186 116.743 18.4141 116.313 18.6875C115.884 18.9609 115.382 19.0977 114.81 19.0977C114.25 19.0977 113.753 18.9609 113.32 18.6875C112.887 18.4108 112.55 18.0186 112.31 17.5107C112.072 16.9997 111.95 16.4089 111.943 15.7383V15.2256C111.943 14.542 112.062 13.9382 112.3 13.4141C112.537 12.89 112.873 12.4896 113.306 12.2129C113.742 11.9329 114.24 11.793 114.8 11.793C115.369 11.793 115.871 11.9313 116.304 12.208C116.74 12.4814 117.075 12.8802 117.31 13.4043C117.544 13.9251 117.661 14.5322 117.661 15.2256V15.6748ZM116.729 15.2158C116.729 14.3727 116.559 13.7266 116.221 13.2773C115.882 12.8249 115.409 12.5986 114.8 12.5986C114.207 12.5986 113.74 12.8249 113.398 13.2773C113.06 13.7266 112.886 14.3516 112.876 15.1523V15.6748C112.876 16.4919 113.047 17.1348 113.389 17.6035C113.734 18.069 114.207 18.3018 114.81 18.3018C115.415 18.3018 115.884 18.082 116.216 17.6426C116.548 17.1999 116.719 16.5667 116.729 15.7432V15.2158ZM120.005 16.2168V19H119.067V11.8906H121.689C122.467 11.8906 123.076 12.0892 123.516 12.4863C123.958 12.8835 124.18 13.4092 124.18 14.0635C124.18 14.7536 123.963 15.2858 123.53 15.6602C123.101 16.0312 122.484 16.2168 121.68 16.2168H120.005ZM120.005 15.4502H121.689C122.191 15.4502 122.575 15.333 122.842 15.0986C123.109 14.861 123.242 14.5192 123.242 14.0732C123.242 13.6501 123.109 13.3115 122.842 13.0576C122.575 12.8037 122.209 12.6719 121.743 12.6621H120.005V15.4502ZM130.845 15.6748C130.845 16.3714 130.728 16.9801 130.493 17.501C130.259 18.0186 129.927 18.4141 129.497 18.6875C129.067 18.9609 128.566 19.0977 127.993 19.0977C127.433 19.0977 126.937 18.9609 126.504 18.6875C126.071 18.4108 125.734 18.0186 125.493 17.5107C125.256 16.9997 125.133 16.4089 125.127 15.7383V15.2256C125.127 14.542 125.246 13.9382 125.483 13.4141C125.721 12.89 126.056 12.4896 126.489 12.2129C126.925 11.9329 127.424 11.793 127.983 11.793C128.553 11.793 129.054 11.9313 129.487 12.208C129.924 12.4814 130.259 12.8802 130.493 13.4043C130.728 13.9251 130.845 14.5322 130.845 15.2256V15.6748ZM129.912 15.2158C129.912 14.3727 129.743 13.7266 129.404 13.2773C129.066 12.8249 128.592 12.5986 127.983 12.5986C127.391 12.5986 126.924 12.8249 126.582 13.2773C126.243 13.7266 126.069 14.3516 126.06 15.1523V15.6748C126.06 16.4919 126.23 17.1348 126.572 17.6035C126.917 18.069 127.391 18.3018 127.993 18.3018C128.599 18.3018 129.067 18.082 129.399 17.6426C129.731 17.1999 129.902 16.5667 129.912 15.7432V15.2158ZM134.858 16.124H133.188V19H132.246V11.8906H134.6C135.4 11.8906 136.016 12.0729 136.445 12.4375C136.878 12.8021 137.095 13.3327 137.095 14.0293C137.095 14.472 136.974 14.8577 136.733 15.1865C136.496 15.5153 136.164 15.7611 135.737 15.9238L137.407 18.9414V19H136.401L134.858 16.124ZM133.188 15.3574H134.629C135.094 15.3574 135.464 15.237 135.737 14.9961C136.014 14.7552 136.152 14.4329 136.152 14.0293C136.152 13.5898 136.021 13.2529 135.757 13.0186C135.496 12.7842 135.119 12.6654 134.624 12.6621H133.188V15.3574ZM142.935 12.6621H140.649V19H139.717V12.6621H137.437V11.8906H142.935V12.6621ZM148.008 15.7139H144.927V18.2334H148.506V19H143.989V11.8906H148.457V12.6621H144.927V14.9473H148.008V15.7139Z" fill="#FFFEFE"/>
</svg>
