<svg width="136" height="44" viewBox="0 0 136 44" fill="none" xmlns="http://www.w3.org/2000/svg">
<path d="M15.8204 28.139C15.5759 27.855 15.2727 27.6274 14.9317 27.472C14.5907 27.3167 14.2205 27.2372 13.8458 27.239H12.3946C12.0797 27.2408 11.7687 27.167 11.4884 27.0236C11.208 26.8802 10.9661 26.6714 10.7833 26.415C10.2686 25.762 10.0067 24.9456 10.044 24.115V13.1331H12.7794C13.5386 13.1587 14.2786 12.8887 14.8428 12.38C15.1132 12.1343 15.3279 11.8342 15.4737 11.4993C15.6195 11.1643 15.6929 10.8023 15.6885 10.437C15.6984 10.0586 15.6277 9.68235 15.4815 9.33313C15.3354 8.98391 15.1174 8.66962 14.8409 8.41101C14.2772 7.90298 13.5377 7.63374 12.7794 7.66003H10.044V3.02209C10.0544 2.61711 9.98283 2.21411 9.83503 1.83691C9.68724 1.45972 9.46545 1.11592 9.18269 0.825806C8.89993 0.53569 8.56183 0.305136 8.18855 0.147705C7.81527 -0.00972596 7.41496 -0.0908203 7.00984 -0.0908203C6.60472 -0.0908203 6.20343 -0.00972596 5.83015 0.147705C5.45687 0.305136 5.11877 0.53569 4.83601 0.825806C4.55325 1.11592 4.33147 1.45972 4.18367 1.83691C4.03587 2.21411 3.96526 2.61711 3.97566 3.02209V7.66003H2.9073C2.14813 7.63443 1.40902 7.90353 0.843824 8.41101C0.568438 8.67016 0.351251 8.98467 0.206129 9.33386C0.0610057 9.68305 -0.00856195 10.059 0.00202702 10.437C-0.00306724 10.802 0.0687951 11.164 0.213941 11.4989C0.359087 11.8338 0.574009 12.1341 0.843824 12.38C1.40872 12.8882 2.14786 13.1581 2.9073 13.1331H3.97566V24.115C3.95359 25.7294 4.32566 27.325 5.05964 28.7631C5.75679 30.1183 6.80425 31.2622 8.09285 32.076C9.39132 32.8456 10.8845 33.2231 12.3927 33.1631H13.1632C14.0162 33.2382 14.868 33.0004 15.5587 32.494C15.8844 32.2232 16.1453 31.8829 16.3223 31.498C16.4994 31.1132 16.5875 30.6936 16.5811 30.27C16.6046 29.4866 16.3321 28.7232 15.8175 28.1321" fill="white"/>
<path d="M34.6996 9.26097C32.8354 8.17576 30.7067 7.62785 28.5502 7.67796C26.3049 7.6447 24.0912 8.21049 22.1371 9.317C20.2576 10.3982 18.7193 11.9845 17.6957 13.896C16.6257 15.9157 16.0819 18.1726 16.1147 20.458C16.0808 22.7553 16.6608 25.0201 17.7953 27.018C18.9022 28.941 20.5237 30.5165 22.478 31.567C24.1734 32.4671 26.0367 33.0077 27.9506 33.155C29.8645 33.3023 31.7878 33.0531 33.601 32.423C34.9958 31.9773 36.3037 31.295 37.4672 30.406C37.7891 30.1812 38.0517 29.8819 38.2328 29.5337C38.4139 29.1854 38.5081 28.7985 38.5073 28.406C38.4723 27.6506 38.1454 26.9384 37.5952 26.4197C37.0449 25.9009 36.3142 25.6163 35.558 25.626C34.8514 25.6153 34.1622 25.8464 33.6049 26.281C32.9868 26.7265 32.3022 27.0705 31.5756 27.3C30.3528 27.721 29.0439 27.8307 27.768 27.6192C26.4921 27.4078 25.2887 26.8819 24.267 26.089C23.2309 25.2571 22.4761 24.1261 22.1059 22.85H37.2241C37.5981 22.8603 37.9706 22.7964 38.3198 22.6618C38.6689 22.5273 38.9879 22.3248 39.2582 22.066C39.5268 21.809 39.7399 21.4994 39.8832 21.1565C40.0266 20.8135 40.0971 20.4446 40.0912 20.073C40.1286 17.8684 39.6574 15.685 38.7143 13.692C37.8344 11.8569 36.4401 10.3173 34.7006 9.26097H34.6996ZM34.1762 17.635H22.1664C22.5525 16.2672 23.3979 15.0744 24.561 14.2575C25.7241 13.4407 27.1336 13.0499 28.5512 13.151C29.2727 13.1153 29.9944 13.2257 30.6723 13.4753C31.3502 13.725 31.9705 14.1089 32.4965 14.604C33.3332 15.4341 33.9157 16.4855 34.1762 17.635" fill="white"/>
<path d="M101.938 9.31104C99.9745 8.1897 97.7481 7.61031 95.487 7.63208C93.2632 7.60088 91.0721 8.16746 89.1422 9.27271C87.2123 10.378 85.6147 11.9812 84.5163 13.915C83.3897 15.8945 82.8096 18.1376 82.8346 20.415V40.8411C82.8211 41.2541 82.8934 41.6653 83.0475 42.0487C83.2016 42.4321 83.4336 42.7792 83.7291 43.068C84.1603 43.5097 84.7149 43.8112 85.32 43.933C85.9251 44.0548 86.5523 43.9912 87.1207 43.7507C87.6892 43.5102 88.1725 43.1039 88.5065 42.5848C88.8405 42.0658 89.0096 41.4581 88.9928 40.8411V30.541C90.8596 32.0526 93.1464 32.9535 95.5426 33.1215C97.9388 33.2894 100.329 32.7163 102.388 31.48C104.198 30.3616 105.67 28.7714 106.644 26.88C107.679 24.8838 108.207 22.6635 108.181 20.415C108.207 18.1434 107.635 15.905 106.525 13.9231C105.442 11.9997 103.857 10.4066 101.939 9.31409L101.938 9.31104ZM95.4879 13.2781C96.6848 13.2591 97.8633 13.5768 98.8883 14.1951C99.9063 14.8127 100.74 15.6927 101.3 16.743C101.905 17.8715 102.213 19.135 102.195 20.415C102.214 21.6867 101.906 22.9419 101.302 24.061C100.74 25.1064 99.906 25.9808 98.8883 26.592C97.8547 27.1929 96.6806 27.5094 95.485 27.5094C94.2894 27.5094 93.1143 27.1929 92.0807 26.592C91.0686 25.9845 90.2426 25.1112 89.692 24.067C89.0987 22.9423 88.7978 21.6865 88.817 20.415C88.7986 19.1339 89.1006 17.8685 89.6959 16.734C90.2446 15.677 91.0768 14.7938 92.0993 14.1832C93.1217 13.5726 94.2942 13.2589 95.485 13.2771" fill="white"/>
<path d="M133.961 13.816C132.902 11.911 131.335 10.3364 129.436 9.26692C127.452 8.16346 125.213 7.59939 122.943 7.63093C120.655 7.59734 118.397 8.16122 116.393 9.26692C114.484 10.3277 112.913 11.9055 111.86 13.8189C110.804 15.8475 110.252 18.1012 110.252 20.3885C110.252 22.6758 110.804 24.9294 111.86 26.958C112.913 28.872 114.484 30.4506 116.393 31.5129C118.406 32.5861 120.654 33.1475 122.936 33.1475C125.217 33.1475 127.464 32.5861 129.478 31.5129C131.375 30.4433 132.937 28.866 133.988 26.958C135.048 24.929 135.6 22.6728 135.596 20.3836C135.591 18.0944 135.03 15.8406 133.962 13.816H133.961ZM126.397 26.6069C125.343 27.1948 124.155 27.5034 122.947 27.5034C121.74 27.5034 120.553 27.1948 119.498 26.6069C118.486 26.0115 117.66 25.1458 117.113 24.1069C116.517 22.968 116.216 21.6975 116.238 20.4119C116.218 19.1178 116.519 17.8388 117.115 16.6899C117.662 15.6474 118.487 14.7764 119.498 14.1729C120.553 13.5852 121.74 13.2767 122.947 13.2767C124.155 13.2767 125.343 13.5852 126.397 14.1729C127.405 14.7681 128.223 15.6381 128.754 16.681C129.337 17.8374 129.631 19.1179 129.61 20.4129C129.631 21.6977 129.338 22.9682 128.754 24.113C128.22 25.1497 127.403 26.0135 126.397 26.604" fill="white"/>
<path d="M78.4463 12.52C78.4463 11.2368 77.9367 10.0061 77.0293 9.09875C76.1219 8.19136 74.8917 7.68152 73.6084 7.68152C72.3252 7.68152 71.0939 8.19136 70.1865 9.09875C69.2791 10.0061 68.7695 11.2368 68.7695 12.52V22.847C68.765 22.9994 68.7915 23.1511 68.8467 23.2932C68.9019 23.4353 68.9847 23.5648 69.0908 23.6742C69.197 23.7836 69.3245 23.8704 69.4649 23.9298C69.6052 23.9892 69.7558 24.0198 69.9082 24.0198C70.0606 24.0198 70.2112 23.9892 70.3516 23.9298C70.4919 23.8704 70.6194 23.7836 70.7256 23.6742C70.8318 23.5648 70.9146 23.4353 70.9697 23.2932C71.0249 23.1511 71.0514 22.9994 71.0469 22.847V12.52C71.0469 11.8405 71.3164 11.189 71.7969 10.7085C72.2774 10.228 72.9289 9.95801 73.6084 9.95801C74.2879 9.95801 74.9395 10.228 75.4199 10.7085C75.9004 11.189 76.1709 11.8405 76.1709 12.52V39.12C76.1709 39.211 76.1643 39.301 76.1553 39.389C76.1402 39.8985 75.9634 40.3899 75.6504 40.7921C75.3374 41.1943 74.9042 41.4864 74.4141 41.6261C73.9239 41.7658 73.4028 41.7458 72.9248 41.5691C72.4468 41.3924 72.0373 41.068 71.7559 40.6431L71.7227 40.592L53.0869 10.3861C52.6678 9.61187 52.0586 8.957 51.3164 8.4834C50.5743 8.0098 49.7235 7.73304 48.8447 7.67908C47.5618 7.6804 46.3321 8.19045 45.4248 9.09741C44.5175 10.0044 44.0067 11.2342 44.0049 12.5171V32.578C44.0026 33.8611 44.5103 35.0926 45.416 36.0015C46.3217 36.9104 47.5509 37.4223 48.834 37.4246C50.1171 37.4268 51.3489 36.9193 52.2578 36.0135C53.1667 35.1078 53.6784 33.8782 53.6807 32.5951L53.709 22.6781C53.7122 22.3762 53.5951 22.0853 53.3848 21.8688C53.1744 21.6522 52.8878 21.5276 52.5859 21.5221H52.5674C52.268 21.5228 51.9806 21.6411 51.7676 21.8516C51.5545 22.062 51.4332 22.3477 51.4287 22.6471L51.4063 32.5791C51.4063 33.2583 51.1365 33.9096 50.6563 34.3899C50.176 34.8702 49.5249 35.14 48.8457 35.14C48.1665 35.14 47.5145 34.8702 47.0342 34.3899C46.5539 33.9096 46.2842 33.2583 46.2842 32.5791V12.521C46.2845 11.8419 46.5542 11.1908 47.0342 10.7104C47.5142 10.2301 48.1657 9.9599 48.8447 9.95911C49.3142 10.0166 49.7631 10.1852 50.1543 10.4512C50.5455 10.7171 50.8676 11.0726 51.0938 11.488C51.1058 11.51 51.1179 11.5301 51.1289 11.5491L69.7774 41.7791C69.8696 41.9297 69.9755 42.072 70.0928 42.2041C70.4115 42.6046 70.7937 42.9499 71.2246 43.2261C71.8337 43.6371 72.5382 43.8847 73.2705 43.9451C73.3125 43.9501 73.7059 43.9711 73.7539 43.9711C74.3698 43.9709 74.9789 43.8495 75.5479 43.6136C76.1168 43.3778 76.6339 43.0323 77.0693 42.5967C77.5048 42.1611 77.8504 41.644 78.0859 41.075C78.3215 40.5059 78.4425 39.8959 78.4424 39.28V12.521L78.4463 12.52Z" fill="white"/>
</svg>
